 <svg  version="1.0" xmlns="http://www.w3.org/2000/svg"  width="300.000000pt" height="306.000000pt" viewBox="0 0 300.000000 306.000000"  preserveAspectRatio="xMidYMid meet">  <g transform="translate(0.000000,306.000000) scale(0.100000,-0.100000)" fill="#a99b04" stroke="none"> <path d="M1408 3023 c12 -2 32 -2 45 0 12 2 2 4 -23 4 -25 0 -35 -2 -22 -4z"/> <path d="M1558 3023 c12 -2 30 -2 40 0 9 3 -1 5 -23 4 -22 0 -30 -2 -17 -4z"/> <path d="M1317 3009 c21 -7 -43 -19 -104 -19 -25 0 -43 -5 -43 -11 0 -8 -13 -10 -37 -6 -23 4 -33 3 -24 -2 10 -7 5 -11 -17 -16 -18 -3 -36 -4 -42 0 -5 3 -10 1 -10 -5 0 -7 -7 -9 -16 -6 -8 3 -12 2 -9 -4 3 -6 -5 -10 -19 -10 -14 0 -28 -4 -31 -10 -3 -5 -16 -10 -27 -10 -11 0 -35 -9 -52 -19 -17 -11 -33 -20 -36 -20 -13 0 -48 -16 -75 -35 -50 -35 -69 -46 -87 -52 -10 -4 -18 -10 -18 -15 0 -8 -91 -74 -100 -72 -3 0 -4 -3 -3 -7 1 -5 -18 -21 -42 -37 -25 -15 -45 -34 -45 -41 0 -7 -4 -11 -9 -8 -15 10 -148 -141 -223 -254 -77 -115 -176 -313 -202 -403 -26 -91 -37 -254 -32 -487 l4 -215 41 -140 c91 -308 198 -474 463 -715 95 -87 145 -123 237 -174 64 -35 127 -67 141 -71 14 -4 50 -18 81 -31 91 -37 395 -94 507 -94 137 0 400 47 495 89 23 10 67 27 97 36 226 73 500 294 711 576 91 120 124 197 185 439 18 68 27 446 14 572 -11 110 -66 324 -115 447 -86 216 -209 361 -474 558 -200 148 -398 237 -587 264 -81 11 -527 19 -497 8z m89 -29 c3 0 3 3 1 8 -9 14 227 13 317 -2 61 -10 94 -12 102 -5 7 5 14 6 16 2 1 -5 47 -23 101 -41 116 -39 290 -123 376 -181 164 -112 277 -225 430 -432 57 -77 121 -203 121 -239 0 -12 5 -31 12 -43 35 -66 97 -400 97 -522 0 -49 0 -103 0 -120 2 -112 -60 -360 -119 -475 -11 -22 -20 -44 -20 -51 0 -6 -14 -32 -32 -58 -17 -25 -50 -73 -72 -106 -87 -130 -336 -360 -456 -420 -30 -15 -71 -38 -90 -50 -19 -12 -62 -31 -95 -44 -33 -12 -69 -27 -79 -33 -88 -47 -334 -90 -521 -90 -259 -1 -427 38 -660 154 -181 91 -208 110 -341 244 -147 148 -199 222 -319 451 -41 79 -56 120 -91 250 -8 32 -19 72 -23 88 -13 44 -16 116 -14 335 1 136 -3 198 -11 203 -7 6 -5 7 6 4 10 -4 18 1 21 14 3 10 0 19 -5 19 -6 0 -5 6 2 15 7 8 16 36 21 61 16 83 106 266 205 414 98 148 297 339 442 423 84 50 87 52 197 103 68 31 100 51 92 57 -8 5 -3 7 13 6 14 -1 32 1 40 4 8 3 49 13 90 22 41 9 93 21 115 27 22 5 48 10 58 11 9 1 17 5 17 9 0 4 12 3 26 -2 14 -6 28 -10 30 -10z m-590 -155 c-11 -8 -24 -15 -30 -15 -5 0 -1 7 10 15 10 8 24 14 29 14 6 0 1 -6 -9 -14z m1894 -390 c11 -13 10 -14 -4 -9 -9 3 -16 10 -16 15 0 13 6 11 20 -6z m-2640 -535 c0 -5 -2 -10 -4 -10 -3 0 -8 5 -11 10 -3 6 -1 10 4 10 6 0 11 -4 11 -10z"/> <path d="M1320 2901 c-125 -25 -292 -77 -400 -125 -91 -40 -186 -94 -178 -101 1 -1 55 23 119 54 145 71 330 132 487 162 34 6 62 16 62 20 0 5 -1 8 -2 8 -2 -1 -41 -9 -88 -18z"/> <path d="M1434 2911 c3 -5 15 -7 26 -4 28 7 25 13 -6 13 -14 0 -23 -4 -20 -9z"/> <path d="M1495 2910 c3 -5 12 -10 20 -10 8 0 17 5 20 10 4 6 -5 10 -20 10 -15 0 -24 -4 -20 -10z"/> <path d="M1605 2910 c-3 -5 -1 -10 4 -10 6 0 11 5 11 10 0 6 -2 10 -4 10 -3 0 -8 -4 -11 -10z"/> <path d="M1665 2900 c17 -4 44 -8 60 -9 23 0 26 2 15 9 -8 5 -35 9 -60 9 -41 -1 -42 -2 -15 -9z"/> <path d="M1770 2892 c0 -5 26 -13 58 -17 31 -4 98 -20 148 -36 50 -16 95 -29 100 -29 32 1 -148 65 -211 75 -22 4 -52 9 -67 11 -16 3 -28 1 -28 -4z"/> <path d="M1408 2850 c-64 -8 -146 -29 -336 -87 -90 -28 -230 -96 -299 -146 -69 -49 -42 -43 50 12 126 76 203 108 382 157 211 58 380 73 530 49 24 -4 27 -3 17 7 -16 16 -242 21 -344 8z"/> <path d="M1795 2830 c3 -5 16 -10 28 -10 18 0 19 2 7 10 -20 13 -43 13 -35 0z"/> <path d="M1935 2791 c3 -5 20 -13 38 -16 71 -15 244 -107 312 -166 11 -9 54 -46 95 -81 81 -70 201 -203 254 -283 34 -51 119 -235 109 -235 -3 0 -1 -6 5 -13 16 -18 52 -114 57 -150 2 -18 11 -77 20 -131 29 -192 15 -462 -30 -561 -8 -16 -28 -68 -45 -114 -16 -47 -58 -132 -92 -190 -81 -136 -245 -303 -396 -403 -55 -38 -104 -68 -107 -68 -3 0 -35 -13 -70 -30 -35 -16 -68 -30 -72 -30 -4 0 -20 -6 -35 -14 -46 -24 -127 -44 -288 -70 -139 -23 -168 -24 -275 -16 -114 8 -251 36 -295 60 -11 6 -20 8 -20 5 0 -3 -16 2 -36 10 -20 8 -44 15 -53 15 -28 0 -191 99 -281 170 -96 77 -186 169 -250 256 -24 32 -68 91 -97 130 -29 39 -53 73 -53 77 0 3 -23 54 -51 113 -76 159 -90 220 -95 408 -2 87 -5 161 -8 163 -12 12 -17 -201 -7 -284 19 -154 110 -375 220 -534 93 -135 279 -327 385 -398 21 -14 57 -38 80 -54 101 -68 230 -116 351 -132 28 -4 77 -14 110 -22 48 -12 93 -14 225 -9 179 7 190 9 360 54 133 35 181 54 305 124 129 73 305 213 305 242 0 6 9 17 19 23 25 16 139 188 188 284 81 158 136 356 146 523 4 69 -13 268 -32 377 -10 59 -77 233 -132 341 -51 101 -104 173 -212 284 -86 90 -215 204 -229 204 -3 0 -36 20 -73 45 -37 24 -106 58 -152 75 -89 32 -108 36 -98 21z"/> <path d="M2115 2790 c3 -5 11 -10 17 -10 10 0 24 -8 156 -90 34 -22 62 -36 62 -31 0 15 -208 141 -233 141 -5 0 -5 -4 -2 -10z"/> <path d="M610 2589 c-36 -28 -82 -67 -104 -87 -49 -47 -165 -203 -219 -295 -141 -240 -186 -385 -192 -627 -4 -144 -3 -148 5 -55 5 55 14 123 19 150 5 28 13 75 16 105 17 145 80 281 252 543 57 86 185 222 253 269 46 30 61 48 43 48 -5 0 -37 -23 -73 -51z"/> <path d="M2381 2633 c6 -15 149 -135 149 -125 0 5 -28 33 -62 63 -68 60 -93 77 -87 62z"/> <path d="M680 2553 c-19 -13 -37 -29 -39 -35 -4 -12 55 21 71 40 19 22 4 20 -32 -5z"/> <path d="M543 2441 c-38 -37 -90 -97 -115 -132 -59 -84 -131 -216 -125 -231 2 -7 17 14 34 47 50 100 84 148 178 250 49 53 95 105 103 116 28 40 -7 16 -75 -50z"/> <path d="M2540 2495 c0 -13 69 -80 75 -73 3 2 -13 22 -35 43 -22 22 -40 35 -40 30z"/> <path d="M2615 2400 c3 -5 11 -10 16 -10 6 0 7 5 4 10 -3 6 -11 10 -16 10 -6 0 -7 -4 -4 -10z"/> <path d="M2665 2330 c3 -5 8 -10 11 -10 2 0 4 5 4 10 0 6 -5 10 -11 10 -5 0 -7 -4 -4 -10z"/> <path d="M2680 2306 c0 -3 6 -11 14 -18 29 -30 106 -207 135 -312 30 -110 41 -136 41 -99 0 68 -94 314 -152 400 -20 28 -38 42 -38 29z"/> <path d="M1309 2204 c-1 -5 -1 -12 -1 -15 1 -4 -6 -6 -14 -5 -9 0 -25 -15 -37 -35 -20 -35 -20 -37 -3 -75 24 -52 53 -82 101 -106 l39 -21 -52 -48 c-50 -46 -63 -71 -42 -84 18 -11 10 -24 -27 -44 -57 -28 -77 -55 -63 -80 16 -30 44 -26 74 12 56 71 55 71 77 52 18 -17 21 -15 89 45 70 62 71 62 91 44 12 -11 32 -40 44 -65 30 -59 78 -109 103 -109 26 0 51 35 45 60 -3 11 -24 36 -47 57 -78 69 -101 91 -111 104 -8 10 5 28 53 74 59 56 64 63 53 83 -15 28 -9 37 39 62 22 11 45 30 51 42 10 18 8 24 -11 40 -25 21 -52 11 -71 -25 -6 -12 -21 -32 -32 -44 -19 -21 -22 -22 -38 -7 -17 15 -20 15 -46 -4 -15 -11 -36 -29 -46 -40 -19 -21 -19 -20 -46 31 -21 41 -37 57 -74 74 -57 27 -97 38 -98 27z m86 -38 c17 -11 34 -21 40 -21 12 0 65 -96 59 -107 -3 -4 -14 -13 -24 -18 -16 -8 -18 -8 -14 5 3 8 9 13 13 11 4 -3 7 4 7 14 0 10 -4 16 -9 13 -5 -3 -8 1 -6 8 1 8 1 21 0 29 -1 13 -2 13 -12 0 -8 -12 -9 -9 -4 10 4 16 3 21 -3 12 -7 -10 -13 -7 -26 12 -9 14 -22 26 -28 26 -7 0 0 -12 14 -27 34 -37 62 -82 55 -89 -3 -3 -11 4 -17 16 -17 31 -80 100 -93 100 -5 0 9 -19 31 -42 23 -23 42 -47 42 -52 0 -6 -24 14 -54 43 -33 32 -56 49 -60 42 -11 -17 -26 -13 -19 4 3 9 8 13 11 11 9 -9 32 15 26 26 -10 15 36 -1 71 -26z m362 -10 c-3 -8 -24 -24 -46 -35 -21 -11 -41 -26 -44 -33 -2 -7 -7 -10 -11 -6 -7 6 18 40 68 91 20 21 43 10 33 -17z m-485 -46 c-6 -15 -11 -19 -16 -12 -10 17 4 56 15 45 6 -6 6 -19 1 -33z m156 -76 c-14 17 -9 29 6 17 22 -18 15 -56 -14 -79 l-25 -20 -54 35 c-29 19 -50 37 -47 40 3 4 -1 14 -9 23 -10 11 -13 24 -8 37 7 18 14 15 66 -38 70 -71 61 -78 -14 -11 -34 30 -46 37 -34 20 11 -15 25 -28 30 -28 6 0 3 -5 -5 -11 -12 -8 -11 -9 5 -7 13 2 19 -2 17 -11 -2 -9 3 -11 13 -7 9 3 18 0 21 -8 3 -7 11 -13 19 -13 8 0 12 4 10 8 -3 4 3 10 12 13 13 6 5 19 -45 69 -34 34 -62 69 -62 77 1 8 29 -14 63 -50 34 -36 59 -61 55 -56z m-14 -33 c-6 -6 -102 88 -116 114 -6 11 19 -9 56 -44 36 -36 63 -67 60 -70z m209 -23 c-32 -32 -61 -58 -64 -58 -3 0 -16 26 -27 57 -19 52 -20 59 -5 75 8 9 19 16 23 15 4 -1 8 2 8 7 1 5 11 14 24 21 21 11 27 8 61 -24 l37 -36 -57 -57z m-118 32 c-3 -5 -2 -10 3 -10 5 0 9 -12 10 -27 1 -35 5 -55 15 -70 4 -6 3 -14 -3 -18 -15 -9 -79 54 -75 74 2 9 4 18 4 20 1 2 7 -2 15 -8 10 -8 16 -8 25 2 9 11 6 14 -12 13 -26 -2 -49 -15 -43 -25 3 -4 0 -13 -5 -21 -8 -12 -9 -9 -7 10 2 15 16 33 37 47 37 25 45 28 36 13z m-45 -101 c27 -17 50 -32 50 -34 0 -1 -30 -29 -66 -60 l-66 -58 -40 40 -40 41 42 38 c24 22 47 38 52 37 4 -2 7 0 7 5 -5 29 1 28 61 -9z m148 -83 c20 -17 40 -30 45 -28 4 1 6 -1 3 -6 -5 -9 35 -48 46 -44 4 1 4 -6 1 -15 -4 -11 -3 -14 5 -9 16 9 15 -7 0 -22 -22 -22 -47 -12 -78 32 -16 25 -30 48 -30 53 0 5 -14 25 -31 46 -17 20 -27 42 -23 48 5 8 10 6 17 -6 5 -10 26 -32 45 -49z m-317 -95 c-27 -32 -47 -48 -57 -44 -19 7 -18 16 4 36 26 24 87 64 91 61 2 -2 -15 -26 -38 -53z"/> <path d="M1326 2172 c-3 -5 8 -9 24 -9 16 0 27 4 24 9 -3 4 -14 8 -24 8 -10 0 -21 -4 -24 -8z"/> <path d="M227 1903 c-33 -104 -56 -226 -38 -207 5 5 14 39 20 76 10 58 40 159 66 221 4 10 3 17 -3 17 -6 0 -26 -48 -45 -107z"/> <path d="M2860 1840 c0 -5 5 -10 10 -10 6 0 10 5 10 10 0 6 -4 10 -10 10 -5 0 -10 -4 -10 -10z"/> <path d="M177 1666 c-4 -10 -5 -21 -2 -24 9 -9 17 6 13 25 -3 17 -4 17 -11 -1z"/> <path d="M2902 1542 c-2 -190 -50 -428 -115 -576 -84 -192 -283 -434 -464 -563 -79 -56 -75 -71 3 -17 137 94 268 227 366 374 125 188 152 258 207 540 16 80 26 314 14 334 -6 11 -10 -18 -11 -92z"/> <path d="M1112 1551 c-10 -6 -11 -17 -4 -42 l9 -34 7 39 c8 43 6 48 -12 37z"/> <path d="M437 1520 c-6 -32 0 -38 16 -17 6 9 24 19 40 23 l27 6 0 -91 c0 -84 -1 -91 -20 -91 -11 0 -20 -4 -20 -10 0 -5 25 -10 55 -10 30 0 55 5 55 10 0 6 -9 10 -20 10 -19 0 -20 7 -20 90 l0 90 27 -5 c16 -2 33 -11 39 -20 16 -22 21 -19 17 13 l-5 27 -93 0 c-92 0 -94 0 -98 -25z"/> <path d="M1410 1515 c1 -27 2 -28 14 -12 8 10 27 19 42 20 l29 2 3 -83 c3 -77 1 -84 -18 -89 -37 -10 -20 -23 30 -23 50 0 67 13 30 23 -18 5 -20 14 -20 85 0 45 3 83 8 85 14 10 62 -6 62 -19 0 -8 5 -14 10 -14 6 0 10 12 10 28 l0 27 -100 0 -100 0 0 -30z"/> <path d="M2277 1520 c-6 -32 0 -38 16 -17 6 9 24 19 40 23 l27 6 0 -91 c0 -73 -3 -91 -14 -91 -8 0 -18 -4 -21 -10 -4 -6 15 -10 49 -10 31 0 56 5 56 10 0 6 -9 10 -20 10 -19 0 -20 7 -20 91 0 79 2 90 16 85 9 -3 24 -6 35 -6 10 0 19 -7 19 -15 0 -8 5 -15 11 -15 6 0 8 7 5 16 -3 9 -6 21 -6 27 0 8 -29 12 -94 12 -93 0 -95 0 -99 -25z"/> <path d="M686 1521 c-28 -31 -17 -62 34 -91 51 -30 63 -62 30 -80 -17 -9 -26 -8 -46 5 -13 8 -24 20 -24 25 0 6 -5 10 -11 10 -13 0 -1 -42 15 -52 19 -13 71 -9 94 8 14 10 22 25 22 44 0 25 -7 33 -50 55 -40 20 -50 30 -50 50 0 37 46 46 72 14 l19 -24 -3 25 c-3 21 -9 25 -44 28 -30 2 -45 -2 -58 -17z"/> <path d="M895 1529 c-51 -29 -73 -110 -42 -149 57 -73 170 -63 203 17 30 72 -11 133 -93 140 -26 2 -57 -2 -68 -8z m106 -28 c69 -69 12 -184 -75 -151 -27 10 -56 56 -56 90 0 31 27 78 47 83 39 10 56 6 84 -22z"/> <path d="M1186 1521 c-28 -31 -17 -62 34 -91 51 -30 63 -62 30 -80 -17 -9 -26 -8 -46 5 -13 8 -24 20 -24 25 0 6 -5 10 -11 10 -13 0 -1 -42 15 -52 37 -25 116 6 116 45 0 31 -9 41 -57 66 -33 16 -43 27 -43 46 0 37 46 46 72 14 l19 -24 -3 25 c-3 21 -9 25 -44 28 -30 2 -45 -2 -58 -17z"/> <path d="M1645 1529 c18 -9 20 -19 19 -92 -1 -68 -4 -83 -17 -85 -37 -7 -14 -22 33 -22 50 0 67 13 30 23 -15 4 -20 14 -20 36 0 45 28 40 73 -14 23 -27 46 -45 59 -45 18 0 15 6 -21 45 -22 24 -41 48 -41 52 0 5 9 14 20 21 11 7 20 23 20 37 0 38 -35 55 -110 54 -50 0 -60 -3 -45 -10z m117 -22 c21 -32 3 -60 -45 -72 -26 -7 -27 -6 -27 37 0 25 3 48 7 52 10 10 56 -3 65 -17z"/> <path d="M1862 1533 c14 -3 17 -20 20 -90 3 -75 1 -87 -14 -91 -44 -11 -11 -22 66 -22 87 0 96 4 96 48 0 13 -4 11 -16 -6 -13 -19 -24 -22 -57 -20 -41 3 -42 4 -45 41 -3 36 -3 37 32 37 20 0 36 -4 36 -10 0 -5 5 -10 10 -10 6 0 10 14 10 30 0 17 -4 30 -10 30 -5 0 -10 -4 -10 -10 0 -5 -16 -10 -36 -10 -35 0 -35 1 -32 38 3 36 4 37 38 34 19 -2 41 -11 47 -19 16 -21 24 -14 16 15 -5 21 -11 22 -87 21 -44 -1 -73 -3 -64 -6z"/> <path d="M2119 1445 c-23 -52 -49 -95 -56 -95 -7 0 -13 -4 -13 -10 0 -5 18 -10 40 -10 22 0 40 5 40 10 0 6 -7 10 -15 10 -18 0 -18 2 -3 35 9 20 18 25 49 25 32 0 38 -4 48 -30 8 -24 7 -30 -5 -30 -7 0 -14 -4 -14 -10 0 -5 20 -10 45 -10 25 0 45 5 45 10 0 6 -6 10 -14 10 -12 0 -86 155 -86 181 0 30 -23 -3 -61 -86z m54 28 c2 -10 8 -26 12 -35 6 -15 2 -18 -24 -18 -17 0 -31 2 -31 4 0 1 5 17 11 35 12 35 24 40 32 14z"/> <path d="M2526 1521 c-28 -31 -16 -62 34 -91 51 -30 63 -62 30 -80 -17 -9 -26 -8 -46 5 -13 8 -24 20 -24 25 0 6 -5 10 -11 10 -13 0 -1 -42 15 -52 19 -13 71 -9 94 8 17 12 22 24 20 46 -2 25 -12 36 -50 56 -36 19 -48 32 -48 49 0 35 47 43 72 13 22 -27 29 -24 17 8 -11 29 -77 31 -103 3z"/> <path d="M98 1294 c2 -20 8 -32 12 -27 10 9 1 63 -9 63 -4 0 -5 -16 -3 -36z"/> <path d="M406 1173 c-3 -3 -5 -22 -5 -42 1 -23 3 -28 6 -13 2 12 9 22 14 22 11 0 12 27 0 34 -4 3 -11 3 -15 -1z"/> <path d="M447 1156 c-19 -29 -22 -46 -7 -46 6 0 10 8 11 18 0 12 3 10 11 -8 11 -23 12 -24 15 -5 2 12 0 31 -5 44 l-8 23 -17 -26z"/> <path d="M501 1149 c-15 -43 -14 -54 4 -39 12 10 18 10 32 -1 15 -12 16 -12 10 4 -4 11 -10 30 -13 43 -8 33 -20 30 -33 -7z m24 -9 c3 -5 1 -10 -4 -10 -6 0 -11 5 -11 10 0 6 2 10 4 10 3 0 8 -4 11 -10z"/> <path d="M560 1140 c0 -41 8 -47 41 -30 34 19 18 70 -23 70 -14 0 -18 -8 -18 -40z m40 0 c0 -11 -4 -20 -10 -20 -5 0 -10 9 -10 20 0 11 5 20 10 20 6 0 10 -9 10 -20z"/> <path d="M630 1140 c0 -33 3 -40 20 -40 11 0 20 5 20 10 0 6 -6 10 -12 10 -9 0 -8 4 2 10 13 9 13 11 0 20 -10 6 -11 10 -2 10 6 0 12 5 12 10 0 6 -9 10 -20 10 -17 0 -20 -7 -20 -40z"/> <path d="M705 1149 c9 -45 21 -56 30 -28 l7 22 13 -23 c14 -26 19 -20 30 29 5 23 4 31 -4 27 -6 -4 -11 -17 -12 -29 -1 -20 -2 -19 -13 6 l-12 27 -11 -27 c-10 -25 -11 -26 -12 -6 -1 12 -6 25 -12 29 -8 4 -9 -4 -4 -27z"/> <path d="M800 1138 c0 -21 5 -38 10 -38 6 0 10 14 10 30 0 17 5 30 10 30 6 0 10 -13 10 -30 0 -16 5 -30 10 -30 6 0 10 14 10 30 0 17 5 30 10 30 6 0 10 5 10 10 0 6 -18 9 -40 8 -39 -3 -40 -4 -40 -40z"/> <path d="M889 1147 c-3 -21 -1 -40 3 -43 4 -3 8 2 8 10 0 9 7 16 16 16 8 0 13 -4 9 -9 -3 -5 -1 -12 5 -16 6 -4 10 9 10 34 0 23 -4 41 -10 41 -5 0 -10 -7 -10 -15 0 -21 -18 -19 -22 3 -3 9 -6 0 -9 -21z"/> <path d="M979 1176 c-3 -3 -3 -21 -1 -41 4 -34 23 -47 37 -25 4 7 12 7 24 0 41 -21 69 39 29 63 -20 13 -48 -6 -48 -34 0 -33 -28 -22 -32 12 -2 17 -5 28 -9 25z m91 -36 c0 -11 -7 -20 -15 -20 -8 0 -15 9 -15 20 0 11 7 20 15 20 8 0 15 -9 15 -20z"/> <path d="M1101 1153 c21 -60 21 -59 35 -28 7 17 13 37 13 45 0 8 -7 2 -14 -15 l-13 -30 -7 28 c-4 15 -11 27 -16 27 -5 0 -4 -12 2 -27z"/> <path d="M1167 1173 c-13 -13 -7 -64 8 -70 21 -7 33 6 16 16 -11 7 -11 10 0 14 12 4 11 7 -1 16 -10 7 -11 11 -2 11 6 0 12 5 12 10 0 11 -23 14 -33 3z"/> <path d="M1269 1178 c-5 -16 -2 -71 3 -75 5 -2 8 3 8 11 0 9 6 16 13 16 8 0 7 3 -3 10 -13 8 -12 11 5 24 20 15 20 15 -2 16 -13 0 -23 -1 -24 -2z"/> <path d="M1321 1138 c0 -32 2 -38 9 -23 7 18 8 19 15 3 13 -31 22 -19 16 19 -4 25 -12 39 -24 41 -14 3 -17 -4 -16 -40z m29 12 c0 -5 -4 -10 -10 -10 -5 0 -10 5 -10 10 0 6 5 10 10 10 6 0 10 -4 10 -10z"/> <path d="M1386 1165 c-9 -9 -16 -20 -16 -25 0 -14 31 -41 43 -37 21 7 32 36 21 54 -15 24 -29 26 -48 8z m39 -25 c0 -8 -8 -16 -17 -18 -13 -2 -18 3 -18 18 0 15 5 20 18 18 9 -2 17 -10 17 -18z"/> <path d="M1457 1143 c-7 -41 0 -60 10 -25 5 20 7 21 18 6 11 -15 12 -15 20 2 7 17 8 17 15 -6 7 -22 8 -21 9 12 1 44 -15 59 -29 26 l-9 -23 -7 23 c-10 33 -21 27 -27 -15z"/> <path d="M1576 1164 c-9 -8 -16 -19 -16 -24 0 -10 29 -40 39 -40 29 0 42 64 15 74 -21 8 -20 8 -38 -10z m40 -15 c10 -17 -13 -36 -27 -22 -12 12 -4 33 11 33 5 0 12 -5 16 -11z"/> <path d="M1645 1148 c9 -43 20 -54 40 -38 17 14 21 70 5 70 -5 0 -10 -13 -10 -30 0 -16 -4 -30 -10 -30 -5 0 -10 14 -10 30 0 17 -5 30 -11 30 -7 0 -8 -12 -4 -32z"/> <path d="M1719 1178 c-6 -30 -5 -69 2 -74 5 -3 9 3 9 12 0 16 1 16 14 -1 13 -18 14 -16 13 20 -2 29 -7 41 -19 43 -10 2 -18 2 -19 0z m31 -28 c0 -5 -4 -10 -10 -10 -5 0 -10 5 -10 10 0 6 5 10 10 10 6 0 10 -4 10 -10z"/> <path d="M1802 1140 c0 -25 2 -37 5 -27 5 18 6 18 24 1 20 -18 27 -6 8 13 -8 8 -8 17 0 32 7 12 8 21 2 21 -5 0 -12 -8 -16 -17 -7 -17 -8 -16 -15 2 -6 15 -8 8 -8 -25z"/> <path d="M1860 1140 c0 -25 4 -39 10 -35 6 3 10 19 10 35 0 16 -4 32 -10 35 -6 4 -10 -10 -10 -35z"/> <path d="M1897 1143 c6 -39 10 -50 17 -42 2 2 6 21 9 42 5 32 3 37 -13 37 -16 0 -18 -5 -13 -37z"/> <path d="M1952 1168 c-28 -28 3 -83 33 -58 8 7 15 17 15 22 0 6 -7 5 -15 -2 -11 -9 -19 -10 -27 -2 -15 15 0 34 23 27 23 -8 26 10 3 19 -20 8 -18 8 -32 -6z"/> <path d="M2014 1145 c3 -37 16 -62 16 -32 0 10 5 17 10 17 6 0 10 -7 10 -15 0 -8 5 -15 10 -15 6 0 10 18 10 40 0 22 -4 40 -10 40 -5 0 -10 -7 -10 -15 0 -8 -4 -15 -10 -15 -5 0 -10 7 -10 15 0 8 -4 15 -10 15 -5 0 -8 -16 -6 -35z"/> <path d="M2083 1143 c1 -27 7 -39 20 -41 9 -2 17 1 17 7 0 6 -6 11 -12 11 -9 0 -8 4 2 10 13 9 13 11 0 20 -10 6 -11 10 -2 10 6 0 12 5 12 10 0 6 -9 10 -20 10 -16 0 -19 -6 -17 -37z"/> <path d="M2140 1180 c-7 -36 -6 -71 1 -76 5 -3 9 5 9 18 l0 23 20 -25 20 -25 -2 45 c0 26 -3 35 -5 21 l-5 -25 -19 25 c-10 13 -19 22 -19 19z"/> <path d="M2220 1170 c0 -5 4 -10 9 -10 6 0 12 -15 14 -32 l4 -33 1 33 c1 17 7 32 12 32 6 0 10 5 10 10 0 6 -11 10 -25 10 -14 0 -25 -4 -25 -10z"/> <path d="M2293 1173 c-25 -10 -9 -73 18 -73 10 0 39 30 39 40 0 11 -29 40 -38 39 -4 0 -13 -3 -19 -6z m33 -24 c10 -17 -13 -36 -27 -22 -12 12 -4 33 11 33 5 0 12 -5 16 -11z"/> <path d="M2370 1171 c0 -6 5 -13 10 -16 6 -3 10 -17 10 -31 0 -13 5 -24 10 -24 6 0 10 11 10 24 0 14 5 28 10 31 6 3 10 10 10 16 0 17 -20 9 -20 -8 -1 -17 -1 -17 -14 0 -14 19 -26 22 -26 8z"/> <path d="M2446 1165 c-9 -9 -16 -20 -16 -25 0 -14 31 -41 43 -37 21 7 32 36 21 54 -15 24 -29 26 -48 8z m39 -25 c0 -8 -8 -16 -17 -18 -13 -2 -18 3 -18 18 0 15 5 20 18 18 9 -2 17 -10 17 -18z"/> <path d="M2510 1151 c0 -37 24 -59 45 -41 17 14 21 70 5 70 -5 0 -10 -13 -10 -30 0 -16 -4 -30 -10 -30 -5 0 -10 14 -10 30 0 17 -4 30 -10 30 -5 0 -10 -13 -10 -29z"/> <path d="M2580 1138 c1 -37 2 -41 13 -26 12 15 14 15 24 0 8 -14 10 -9 9 23 -1 33 -5 41 -23 43 -21 3 -23 -1 -23 -40z m40 12 c0 -5 -4 -10 -10 -10 -5 0 -10 5 -10 10 0 6 5 10 10 10 6 0 10 -4 10 -10z"/> <path d="M2644 1169 c-4 -7 3 -20 17 -31 l24 -20 -22 5 c-25 5 -32 -7 -10 -16 23 -9 36 7 34 38 -3 31 -29 46 -43 24z"/> <path d="M155 1100 c11 -48 150 -313 185 -354 20 -22 47 -57 60 -76 60 -85 182 -204 300 -291 85 -62 344 -178 470 -209 109 -27 383 -38 521 -20 194 24 351 70 472 138 95 52 92 50 85 58 -3 3 -38 -11 -77 -30 -155 -79 -284 -114 -506 -141 -230 -28 -402 -10 -627 65 -230 77 -326 137 -514 325 -76 75 -134 145 -184 220 -67 102 -150 255 -150 279 0 6 -10 22 -21 36 l-20 25 6 -25z"/> <path d="M1213 1105 c0 -8 4 -15 9 -15 4 0 8 7 8 15 0 8 -4 15 -8 15 -5 0 -9 -7 -9 -15z"/> <path d="M1238 3003 c6 -2 18 -2 25 0 6 3 1 5 -13 5 -14 0 -19 -2 -12 -5z"/> </g> </svg> 